<svg width="512" height="512" viewBox="0 0 512 512" fill="none" xmlns="http://www.w3.org/2000/svg">
  <defs>
    <linearGradient id="background" x1="78" y1="52" x2="434" y2="460" gradientUnits="userSpaceOnUse">
      <stop stop-color="#A8E8FF"/>
      <stop offset="1" stop-color="#7DB7FF"/>
    </linearGradient>
    <linearGradient id="bubbleStroke" x1="132" y1="142" x2="394" y2="388" gradientUnits="userSpaceOnUse">
      <stop stop-color="#FFFFFF"/>
      <stop offset="0.45" stop-color="#F8FBFF"/>
      <stop offset="1" stop-color="#84B9FF"/>
    </linearGradient>
    <linearGradient id="cyan" x1="164" y1="195" x2="268" y2="322" gradientUnits="userSpaceOnUse">
      <stop stop-color="#19D3F3"/>
      <stop offset="1" stop-color="#22B8F0"/>
    </linearGradient>
    <linearGradient id="blue" x1="348" y1="195" x2="244" y2="322" gradientUnits="userSpaceOnUse">
      <stop stop-color="#3A8BFF"/>
      <stop offset="1" stop-color="#2563EB"/>
    </linearGradient>
    <filter id="shadow" x="28" y="80" width="456" height="384" filterUnits="userSpaceOnUse" color-interpolation-filters="sRGB">
      <feFlood flood-opacity="0" result="BackgroundImageFix"/>
      <feColorMatrix in="SourceAlpha" type="matrix" values="0 0 0 0 0 0 0 0 0 0 0 0 0 0 0 0 0 0 127 0" result="hardAlpha"/>
      <feOffset dy="10"/>
      <feGaussianBlur stdDeviation="14"/>
      <feComposite in2="hardAlpha" operator="out"/>
      <feColorMatrix type="matrix" values="0 0 0 0 0.12 0 0 0 0 0.34 0 0 0 0 0.72 0 0 0 0.22 0"/>
      <feBlend mode="normal" in2="BackgroundImageFix" result="effect1_dropShadow"/>
      <feBlend mode="normal" in="SourceGraphic" in2="effect1_dropShadow" result="shape"/>
    </filter>
  </defs>

  <rect width="512" height="512" rx="112" fill="url(#background)"/>

  <g filter="url(#shadow)">
    <path
      d="M128 132H384C420.451 132 450 161.549 450 198V298C450 334.451 420.451 364 384 364H296L213.927 427.21C202.399 436.089 185.75 427.87 185.75 413.318V364H128C91.5492 364 62 334.451 62 298V198C62 161.549 91.5492 132 128 132Z"
      fill="#FFFFFF"
      fill-opacity="0.74"
    />
    <path
      d="M128 132H384C420.451 132 450 161.549 450 198V298C450 334.451 420.451 364 384 364H296L213.927 427.21C202.399 436.089 185.75 427.87 185.75 413.318V364H128C91.5492 364 62 334.451 62 298V198C62 161.549 91.5492 132 128 132Z"
      stroke="url(#bubbleStroke)"
      stroke-width="22"
      stroke-linejoin="round"
    />
  </g>

  <path d="M214 208L172 248L214 288" stroke="url(#cyan)" stroke-width="30" stroke-linecap="round" stroke-linejoin="round"/>
  <path d="M298 208L340 248L298 288" stroke="url(#blue)" stroke-width="30" stroke-linecap="round" stroke-linejoin="round"/>

  <circle cx="236" cy="248" r="7" fill="#25CDEB"/>
  <circle cx="256" cy="248" r="7" fill="#28A9F4"/>
  <circle cx="276" cy="248" r="7" fill="#2E75F0"/>
</svg>
